<svg id="SvgjsSvg1001" width="288" height="288" xmlns="http://www.w3.org/2000/svg" version="1.1" xmlns:xlink="http://www.w3.org/1999/xlink" xmlns:svgjs="http://svgjs.com/svgjs"><path id="SvgjsPath1017" d="M 144,0 C 5,0 0,5 0,144 0,283 5,288 144,288 283,288 288,283 288,144 288,5 283,0 144,0 Z" transform="matrix(0.85,0,0,0.85,21.60000000000001,21.60000000000001)" fill="#87ddfd"></path><defs id="SvgjsDefs1002"></defs><g id="SvgjsG1008" transform="matrix(0.61,0,0,0.61,58.5,51.480000000000004)"><svg xmlns="http://www.w3.org/2000/svg" fill="none" stroke="currentColor" stroke-linecap="round" stroke-linejoin="round" stroke-width="2" class="feather feather-coffee" viewBox="0 0 24 24" width="288" height="288"><path d="M18 8h1a4 4 0 010 8h-1M2 8h16v9a4 4 0 01-4 4H6a4 4 0 01-4-4V8z" fill="#ffffff" class="color000 svgShape"></path><line x1="6" x2="6" y1="1" y2="4"></line><line x1="10" x2="10" y1="1" y2="4"></line><line x1="14" x2="14" y1="1" y2="4"></line></svg></g></svg>